<?xml version="1.0" encoding="utf-8"?>
<!-- Generator: Adobe Illustrator 17.1.0, SVG Export Plug-In . SVG Version: 6.00 Build 0)  -->
<!DOCTYPE svg PUBLIC "-//W3C//DTD SVG 1.1//EN" "http://www.w3.org/Graphics/SVG/1.1/DTD/svg11.dtd">
<svg version="1.1" xmlns="http://www.w3.org/2000/svg" xmlns:xlink="http://www.w3.org/1999/xlink" x="0px" y="0px"
	 viewBox="0 0 240.9 141.7" enable-background="new 0 0 240.9 141.7" xml:space="preserve">
<g id="Calque_1">
	<g>
		<g id="XMLID_9_">
			<g>
				<polygon fill="#7FC2C8" points="232.4,102.4 232.4,133.9 200.4,133.9 232.2,102.6 232.2,102.6 				"/>
				<polygon fill="#7FC2C8" points="232.4,39.4 232.4,70.9 232.2,70.9 232.2,70.6 200.7,70.6 216.4,55.1 				"/>
				<polygon fill="#0E6170" points="232.4,7.9 232.4,39.4 200.4,39.4 				"/>
				<polygon fill="#EDECEE" points="232.4,7.9 200.4,39.4 200.4,7.9 				"/>
				<polygon fill="#0E6170" points="232.4,39.4 216.4,55.1 200.4,39.4 				"/>
				<polygon fill="#0E6170" points="232.4,102.4 232.2,102.6 232.2,102.4 				"/>
				<polygon fill="#7FC2C8" points="232.2,102.6 232.2,102.6 200.7,102.6 200.9,102.4 232.2,102.4 				"/>
				<polygon fill="#EDECEE" points="232.2,70.9 232.2,102.4 200.9,102.4 216.4,86.6 232,70.9 				"/>
				<polygon fill="#7FC2C8" points="232.2,70.6 232.2,70.9 232,70.9 				"/>
				<polygon fill="#7FC2C8" points="232.2,70.6 232,70.9 200.9,70.9 200.7,70.6 200.7,70.6 				"/>
				<polygon fill="#EDECEE" points="232.2,102.6 200.4,133.9 200.4,102.4 200.7,102.4 200.7,102.6 				"/>
				<polygon fill="#7FC2C8" points="232,70.9 216.4,86.6 200.9,70.9 				"/>
				<polygon fill="#EDECEE" points="216.4,55.1 200.7,70.6 200.7,70.6 200.7,70.6 200.4,70.9 200.4,39.4 				"/>
				<polygon fill="#0E6170" points="200.9,70.9 216.4,86.6 200.9,102.4 200.7,102.4 200.7,70.9 				"/>
				<polygon fill="#0E6170" points="200.7,70.6 200.9,70.9 200.7,70.9 				"/>
				<polygon fill="#0E6170" points="200.9,102.4 200.7,102.6 200.7,102.4 				"/>
				<polygon fill="#EDECEE" points="200.7,70.6 200.7,70.6 200.7,70.6 				"/>
				<polygon fill="#7FC2C8" points="200.7,70.6 200.7,70.9 200.4,70.9 				"/>
				<polygon fill="#EDECEE" points="200.4,102.4 200.4,133.9 168.5,133.9 				"/>
				<polygon fill="#0E6170" points="200.4,70.9 200.4,102.4 184.5,86.6 				"/>
				<polygon fill="#EDECEE" points="200.4,39.4 200.4,70.9 168.5,70.9 				"/>
				<rect x="168.5" y="7.9" fill="#7FC2C8" width="32" height="31.5"/>
				<polygon fill="#7FC2C8" points="200.4,39.4 168.5,70.9 168.5,39.4 				"/>
				<polygon fill="#EDECEE" points="200.4,70.9 184.5,86.6 168.5,70.9 				"/>
				<polygon fill="#7FC2C8" points="200.4,102.4 168.5,133.9 168.5,102.4 				"/>
				<polygon fill="#7FC2C8" points="200.4,102.4 168.5,102.4 184.5,86.6 				"/>
				<polygon fill="#0E6170" points="184.5,86.6 168.5,102.4 168.5,70.9 				"/>
				<polygon fill="#7FC2C8" points="168.5,102.4 168.5,133.9 136.5,133.9 				"/>
				<polygon fill="#7FC2C8" points="168.5,70.9 168.5,102.4 152.5,86.6 				"/>
				<polygon fill="#7FC2C8" points="168.5,39.4 168.5,70.9 152.5,55.1 				"/>
				<polygon fill="#EDECEE" points="168.5,7.9 168.5,39.4 136.5,39.4 				"/>
				<polygon fill="#0E6170" points="168.5,7.9 168.5,7.9 136.5,39.4 136.5,7.9 				"/>
				<polygon fill="#EDECEE" points="168.5,39.4 152.5,55.1 136.5,70.9 136.5,39.4 136.5,39.4 				"/>
				<polygon fill="#0E6170" points="168.5,70.9 152.5,86.6 136.5,70.9 				"/>
				<polygon fill="#0E6170" points="168.5,70.9 136.5,70.9 152.5,55.1 				"/>
				<polygon fill="#0E6170" points="168.5,102.4 136.5,133.9 136.5,102.4 				"/>
				<polygon fill="#0E6170" points="168.5,102.4 136.5,102.4 152.5,86.6 				"/>
				<polygon fill="#7FC2C8" points="152.5,86.6 136.5,102.4 136.5,70.9 				"/>
				<polygon fill="#EDECEE" points="136.5,102.4 136.5,133.9 120.5,118.1 				"/>
				<polygon fill="#7FC2C8" points="136.5,70.9 136.5,102.4 104.5,102.4 				"/>
				<polygon fill="#7FC2C8" points="136.5,39.4 136.5,70.9 104.5,70.9 				"/>
				<polygon fill="#0E6170" points="136.5,7.9 136.5,39.4 104.5,39.4 120.5,23.6 				"/>
				<polygon fill="#7FC2C8" points="136.5,7.9 120.5,23.6 104.5,7.9 				"/>
				<polygon fill="#0E6170" points="136.5,39.4 104.5,70.9 104.5,39.4 				"/>
				<polygon fill="#7FC2C8" points="136.5,70.9 104.5,102.4 104.5,70.9 				"/>
				<polygon fill="#7FC2C8" points="136.5,102.4 120.5,118.1 104.5,102.4 				"/>
				<polygon fill="#0E6170" points="136.5,133.9 104.5,133.9 120.5,118.1 				"/>
				<polygon fill="#EDECEE" points="120.5,23.6 104.5,39.4 104.5,7.9 				"/>
				<polygon fill="#7FC2C8" points="120.5,118.1 104.5,133.9 104.5,102.4 				"/>
				<polygon fill="#7FC2C8" points="104.5,102.4 104.5,133.9 72.5,133.9 				"/>
				<polygon fill="#7FC2C8" points="104.5,70.9 104.5,102.4 88.5,86.6 				"/>
				<polygon fill="#EDECEE" points="104.5,39.4 104.5,70.9 88.5,55.1 				"/>
				<polygon fill="#0E6170" points="104.5,7.9 104.5,39.4 72.5,39.4 				"/>
				<polygon fill="#EDECEE" points="104.5,7.9 72.5,39.4 72.5,7.9 				"/>
				<polygon fill="#0E6170" points="104.5,39.4 88.5,55.1 72.5,39.4 				"/>
				<polygon fill="#0E6170" points="104.5,70.9 88.5,86.6 72.5,70.9 				"/>
				<polygon fill="#EDECEE" points="104.5,102.4 72.5,133.9 72.5,102.4 				"/>
				<polygon fill="#0E6170" points="104.5,70.9 72.5,70.9 88.5,55.1 				"/>
				<polygon fill="#EDECEE" points="104.5,102.4 72.5,102.4 88.5,86.6 				"/>
				<polygon fill="#EDECEE" points="88.5,55.1 72.5,70.9 72.5,39.4 				"/>
				<polygon fill="#7FC2C8" points="88.5,86.6 72.5,102.4 72.5,70.9 				"/>
				<polygon fill="#EDECEE" points="72.5,102.4 72.5,133.9 40.5,133.9 				"/>
				<polygon fill="#7FC2C8" points="72.5,70.9 72.5,102.4 56.5,86.6 				"/>
				<polygon fill="#EDECEE" points="72.5,39.4 72.5,70.9 56.5,55.1 				"/>
				<polygon fill="#EDECEE" points="72.5,7.9 72.5,39.4 56.5,23.6 				"/>
				<polygon fill="#0E6170" points="72.5,7.9 56.5,23.6 40.5,39.4 40.5,39.4 40.5,7.9 				"/>
				<polygon fill="#7FC2C8" points="72.5,39.4 56.5,55.1 40.5,39.4 69,39.4 				"/>
				<polygon fill="#0E6170" points="72.5,70.9 56.5,86.6 40.5,70.9 				"/>
				<polygon fill="#0E6170" points="72.5,102.4 40.5,133.9 40.5,102.4 40.5,102.4 				"/>
				<polygon fill="#7FC2C8" points="72.5,39.4 69,39.4 40.5,39.4 56.5,23.6 				"/>
				<polygon fill="#0E6170" points="72.5,70.9 40.5,70.9 56.5,55.1 				"/>
				<polygon fill="#0E6170" points="72.5,102.4 40.5,102.4 56.5,86.6 				"/>
				<polygon fill="#0E6170" points="56.5,55.1 40.5,70.9 40.5,39.4 				"/>
				<polygon fill="#7FC2C8" points="56.5,86.6 40.5,102.4 40.5,70.9 				"/>
				<polygon fill="#0E6170" points="40.5,39.4 40.5,39.4 40.5,39.4 				"/>
				<polygon fill="#0E6170" points="40.5,102.4 40.5,133.9 8.5,133.9 24.5,118.1 				"/>
				<polygon fill="#7FC2C8" points="40.5,70.9 40.5,102.4 8.5,102.4 				"/>
				<polygon fill="#EDECEE" points="40.5,39.4 40.5,70.9 8.5,70.9 				"/>
				<polygon fill="#0E6170" points="40.5,39.4 40.5,39.4 24.5,23.6 40.5,7.9 				"/>
				<polygon fill="#7FC2C8" points="40.5,7.9 24.5,23.6 8.5,7.9 				"/>
				<polygon fill="#7FC2C8" points="40.5,39.4 8.5,70.9 8.5,39.4 				"/>
				<polygon fill="#EDECEE" points="40.5,70.9 8.5,102.4 8.5,70.9 				"/>
				<polygon fill="#7FC2C8" points="40.5,102.4 40.5,102.4 24.5,118.1 8.5,102.4 				"/>
				<polygon fill="#7FC2C8" points="40.5,39.4 8.5,39.4 24.5,23.6 				"/>
				<polygon fill="#EDECEE" points="24.5,23.6 8.5,39.4 8.5,7.9 				"/>
				<polygon fill="#EDECEE" points="24.5,118.1 8.5,133.9 8.5,102.4 				"/>
			</g>
			<g>
				<polyline fill="none" stroke="#FFFFFF" stroke-width="0.966" stroke-miterlimit="10" points="232.4,102.4 232.4,133.9 
					200.4,133.9 				"/>
				<line fill="none" stroke="#FFFFFF" stroke-width="0.966" stroke-miterlimit="10" x1="232.4" y1="7.9" x2="232.4" y2="39.4"/>
				<polyline fill="none" stroke="#FFFFFF" stroke-width="0.966" stroke-miterlimit="10" points="200.4,7.9 232.4,7.9 200.4,39.4 
									"/>
				<polyline fill="none" stroke="#FFFFFF" stroke-width="0.966" stroke-miterlimit="10" points="232.2,70.6 232.2,70.9 
					232.2,102.4 232.2,102.6 				"/>
				<line fill="none" stroke="#FFFFFF" stroke-width="0.966" stroke-miterlimit="10" x1="232.2" y1="102.6" x2="200.7" y2="102.6"/>
				<polyline fill="none" stroke="#FFFFFF" stroke-width="0.966" stroke-miterlimit="10" points="232.2,102.4 232.4,102.4 
					232.2,102.6 232.2,102.6 200.4,133.9 				"/>
				<line fill="none" stroke="#FFFFFF" stroke-width="0.966" stroke-miterlimit="10" x1="200.4" y1="102.4" x2="200.7" y2="102.4"/>
				<polyline fill="none" stroke="#FFFFFF" stroke-width="0.966" stroke-miterlimit="10" points="216.4,86.6 200.9,102.4 
					200.7,102.6 200.7,102.4 200.7,70.9 200.7,70.6 				"/>
				<polygon fill="none" stroke="#FFFFFF" stroke-width="0.966" stroke-miterlimit="10" points="216.4,86.6 200.9,70.9 200.7,70.6 
					200.7,70.6 200.7,70.6 232.2,70.6 232,70.9 				"/>
				<polyline fill="none" stroke="#FFFFFF" stroke-width="0.966" stroke-miterlimit="10" points="200.4,102.4 200.4,133.9 
					168.5,133.9 				"/>
				<line fill="none" stroke="#FFFFFF" stroke-width="0.966" stroke-miterlimit="10" x1="200.4" y1="70.9" x2="200.4" y2="102.4"/>
				<polyline fill="none" stroke="#FFFFFF" stroke-width="0.966" stroke-miterlimit="10" points="168.5,7.9 200.4,7.9 200.4,39.4 
									"/>
				<polyline fill="none" stroke="#FFFFFF" stroke-width="0.966" stroke-miterlimit="10" points="168.5,39.4 200.4,39.4 168.5,70.9 
									"/>
				<polyline fill="none" stroke="#FFFFFF" stroke-width="0.966" stroke-miterlimit="10" points="168.5,70.9 200.4,70.9 184.5,86.6 
									"/>
				<line fill="none" stroke="#FFFFFF" stroke-width="0.966" stroke-miterlimit="10" x1="200.4" y1="102.4" x2="168.5" y2="133.9"/>
				<polyline fill="none" stroke="#FFFFFF" stroke-width="0.966" stroke-miterlimit="10" points="184.5,86.6 200.4,102.4 
					168.5,102.4 				"/>
				<polyline fill="none" stroke="#FFFFFF" stroke-width="0.966" stroke-miterlimit="10" points="168.5,70.9 184.5,86.6 
					168.5,102.4 				"/>
				<polyline fill="none" stroke="#FFFFFF" stroke-width="0.966" stroke-miterlimit="10" points="168.5,102.4 168.5,133.9 
					136.5,133.9 				"/>
				<line fill="none" stroke="#FFFFFF" stroke-width="0.966" stroke-miterlimit="10" x1="168.5" y1="70.9" x2="168.5" y2="102.4"/>
				<line fill="none" stroke="#FFFFFF" stroke-width="0.966" stroke-miterlimit="10" x1="168.5" y1="39.4" x2="168.5" y2="70.9"/>
				<line fill="none" stroke="#FFFFFF" stroke-width="0.966" stroke-miterlimit="10" x1="168.5" y1="7.9" x2="168.5" y2="39.4"/>
				<polygon fill="none" stroke="#FFFFFF" stroke-width="0.966" stroke-miterlimit="10" points="136.5,39.4 136.5,7.9 168.5,7.9 
					168.5,7.9 				"/>
				<polyline fill="none" stroke="#FFFFFF" stroke-width="0.966" stroke-miterlimit="10" points="136.5,39.4 136.5,39.4 168.5,39.4 
					152.5,55.1 				"/>
				<line fill="none" stroke="#FFFFFF" stroke-width="0.966" stroke-miterlimit="10" x1="168.5" y1="70.9" x2="152.5" y2="86.6"/>
				<polygon fill="none" stroke="#FFFFFF" stroke-width="0.966" stroke-miterlimit="10" points="168.5,70.9 136.5,70.9 152.5,55.1 
									"/>
				<line fill="none" stroke="#FFFFFF" stroke-width="0.966" stroke-miterlimit="10" x1="168.5" y1="102.4" x2="136.5" y2="133.9"/>
				<polyline fill="none" stroke="#FFFFFF" stroke-width="0.966" stroke-miterlimit="10" points="152.5,86.6 168.5,102.4 
					136.5,102.4 				"/>
				<polyline fill="none" stroke="#FFFFFF" stroke-width="0.966" stroke-miterlimit="10" points="136.5,70.9 152.5,86.6 
					136.5,102.4 				"/>
				<line fill="none" stroke="#FFFFFF" stroke-width="0.966" stroke-miterlimit="10" x1="136.5" y1="102.4" x2="136.5" y2="133.9"/>
				<line fill="none" stroke="#FFFFFF" stroke-width="0.966" stroke-miterlimit="10" x1="136.5" y1="70.9" x2="136.5" y2="102.4"/>
				<line fill="none" stroke="#FFFFFF" stroke-width="0.966" stroke-miterlimit="10" x1="136.5" y1="39.4" x2="136.5" y2="70.9"/>
				<line fill="none" stroke="#FFFFFF" stroke-width="0.966" stroke-miterlimit="10" x1="136.5" y1="7.9" x2="136.5" y2="39.4"/>
				<polyline fill="none" stroke="#FFFFFF" stroke-width="0.966" stroke-miterlimit="10" points="104.5,7.9 136.5,7.9 120.5,23.6 
									"/>
				<polyline fill="none" stroke="#FFFFFF" stroke-width="0.966" stroke-miterlimit="10" points="104.5,39.4 136.5,39.4 104.5,70.9 
									"/>
				<polyline fill="none" stroke="#FFFFFF" stroke-width="0.966" stroke-miterlimit="10" points="104.5,70.9 136.5,70.9 
					104.5,102.4 				"/>
				<polyline fill="none" stroke="#FFFFFF" stroke-width="0.966" stroke-miterlimit="10" points="104.5,102.4 136.5,102.4 
					120.5,118.1 				"/>
				<polyline fill="none" stroke="#FFFFFF" stroke-width="0.966" stroke-miterlimit="10" points="120.5,118.1 136.5,133.9 
					104.5,133.9 				"/>
				<polyline fill="none" stroke="#FFFFFF" stroke-width="0.966" stroke-miterlimit="10" points="104.5,102.4 120.5,118.1 
					104.5,133.9 				"/>
				<polyline fill="none" stroke="#FFFFFF" stroke-width="0.966" stroke-miterlimit="10" points="104.5,102.4 104.5,133.9 
					72.5,133.9 				"/>
				<line fill="none" stroke="#FFFFFF" stroke-width="0.966" stroke-miterlimit="10" x1="104.5" y1="70.9" x2="88.5" y2="55.1"/>
				<line fill="none" stroke="#FFFFFF" stroke-width="0.966" stroke-miterlimit="10" x1="104.5" y1="39.4" x2="104.5" y2="70.9"/>
				<line fill="none" stroke="#FFFFFF" stroke-width="0.966" stroke-miterlimit="10" x1="72.5" y1="70.9" x2="88.5" y2="55.1"/>
				<line fill="none" stroke="#FFFFFF" stroke-width="0.966" stroke-miterlimit="10" x1="72.5" y1="70.9" x2="104.5" y2="70.9"/>
				<polyline fill="none" stroke="#FFFFFF" stroke-width="0.966" stroke-miterlimit="10" points="72.5,102.4 104.5,102.4 
					72.5,133.9 				"/>
				<polyline fill="none" stroke="#FFFFFF" stroke-width="0.966" stroke-miterlimit="10" points="104.5,39.4 88.5,55.1 72.5,39.4 
									"/>
				<line fill="none" stroke="#FFFFFF" stroke-width="0.966" stroke-miterlimit="10" x1="72.5" y1="39.4" x2="104.5" y2="39.4"/>
				<polygon fill="none" stroke="#FFFFFF" stroke-width="0.966" stroke-miterlimit="10" points="88.5,86.6 104.5,70.9 104.5,102.4 
									"/>
				<polyline fill="none" stroke="#FFFFFF" stroke-width="0.966" stroke-miterlimit="10" points="72.5,70.9 88.5,86.6 72.5,102.4 
									"/>
				<polyline fill="none" stroke="#FFFFFF" stroke-width="0.966" stroke-miterlimit="10" points="72.5,102.4 72.5,133.9 40.5,133.9 
									"/>
				<line fill="none" stroke="#FFFFFF" stroke-width="0.966" stroke-miterlimit="10" x1="72.5" y1="70.9" x2="72.5" y2="102.4"/>
				<line fill="none" stroke="#FFFFFF" stroke-width="0.966" stroke-miterlimit="10" x1="72.5" y1="39.4" x2="72.5" y2="70.9"/>
				<polyline fill="none" stroke="#FFFFFF" stroke-width="0.966" stroke-miterlimit="10" points="40.5,7.9 72.5,7.9 56.5,23.6 				
					"/>
				<line fill="none" stroke="#FFFFFF" stroke-width="0.966" stroke-miterlimit="10" x1="40.5" y1="39.4" x2="40.5" y2="39.4"/>
				<line fill="none" stroke="#FFFFFF" stroke-width="0.966" stroke-miterlimit="10" x1="40.5" y1="39.4" x2="69" y2="39.4"/>
				<line fill="none" stroke="#FFFFFF" stroke-width="0.966" stroke-miterlimit="10" x1="72.5" y1="39.4" x2="56.5" y2="55.1"/>
				<polyline fill="none" stroke="#FFFFFF" stroke-width="0.966" stroke-miterlimit="10" points="40.5,39.4 56.5,23.6 72.5,39.4 
					69,39.4 40.5,39.4 40.5,39.4 				"/>
				<line fill="none" stroke="#FFFFFF" stroke-width="0.966" stroke-miterlimit="10" x1="72.5" y1="70.9" x2="56.5" y2="86.6"/>
				<line fill="none" stroke="#FFFFFF" stroke-width="0.966" stroke-miterlimit="10" x1="72.5" y1="102.4" x2="40.5" y2="133.9"/>
				<polyline fill="none" stroke="#FFFFFF" stroke-width="0.966" stroke-miterlimit="10" points="56.5,55.1 72.5,70.9 40.5,70.9 
									"/>
				<line fill="none" stroke="#FFFFFF" stroke-width="0.966" stroke-miterlimit="10" x1="40.5" y1="102.4" x2="8.5" y2="102.4"/>
				<polyline fill="none" stroke="#FFFFFF" stroke-width="0.966" stroke-miterlimit="10" points="56.5,86.6 72.5,102.4 40.5,102.4 
									"/>
				<polyline fill="none" stroke="#FFFFFF" stroke-width="0.966" stroke-miterlimit="10" points="40.5,39.4 56.5,55.1 40.5,70.9 
									"/>
				<polygon fill="none" stroke="#FFFFFF" stroke-width="0.966" stroke-miterlimit="10" points="56.5,86.6 40.5,102.4 40.5,70.9 
									"/>
				<polyline fill="none" stroke="#FFFFFF" stroke-width="0.966" stroke-miterlimit="10" points="24.5,118.1 40.5,102.4 40.5,102.4 
									"/>
				<polyline fill="none" stroke="#FFFFFF" stroke-width="0.966" stroke-miterlimit="10" points="40.5,102.4 40.5,133.9 8.5,133.9 
									"/>
				<polyline fill="none" stroke="#FFFFFF" stroke-width="0.966" stroke-miterlimit="10" points="40.5,70.9 8.5,102.4 8.5,70.9 				
					"/>
				<polyline fill="none" stroke="#FFFFFF" stroke-width="0.966" stroke-miterlimit="10" points="40.5,39.4 40.5,70.9 8.5,70.9 				
					"/>
				<polyline fill="none" stroke="#FFFFFF" stroke-width="0.966" stroke-miterlimit="10" points="24.5,23.6 8.5,39.4 8.5,7.9 				
					"/>
				<polyline fill="none" stroke="#FFFFFF" stroke-width="0.966" stroke-miterlimit="10" points="104.5,7.9 120.5,23.6 104.5,39.4 
									"/>
				<line fill="none" stroke="#FFFFFF" stroke-width="0.966" stroke-miterlimit="10" x1="104.5" y1="39.4" x2="104.5" y2="7.9"/>
				<polyline fill="none" stroke="#FFFFFF" stroke-width="0.966" stroke-miterlimit="10" points="40.5,7.9 40.5,39.4 40.5,39.4 
					24.5,23.6 				"/>
				<polygon fill="none" stroke="#FFFFFF" stroke-width="0.966" stroke-miterlimit="10" points="40.5,39.4 8.5,70.9 8.5,39.4 				
					"/>
				<polygon fill="none" stroke="#FFFFFF" stroke-width="0.966" stroke-miterlimit="10" points="24.5,118.1 8.5,133.9 8.5,102.4 
									"/>
				<polygon fill="none" stroke="#FFFFFF" stroke-width="0.966" stroke-miterlimit="10" points="8.5,7.9 40.5,7.9 24.5,23.6 				"/>
				<line fill="none" stroke="#FFFFFF" stroke-width="0.966" stroke-miterlimit="10" x1="200.7" y1="70.9" x2="200.4" y2="70.9"/>
				<polyline fill="none" stroke="#FFFFFF" stroke-width="0.966" stroke-miterlimit="10" points="232.4,39.4 232.4,70.9 232.2,70.9 
									"/>
				<polyline fill="none" stroke="#FFFFFF" stroke-width="0.966" stroke-miterlimit="10" points="200.4,39.4 232.4,39.4 216.4,55.1 
									"/>
				<polyline fill="none" stroke="#FFFFFF" stroke-width="0.966" stroke-miterlimit="10" points="200.7,70.6 200.4,70.9 200.4,39.4 
					216.4,55.1 200.7,70.6 				"/>
				<polygon fill="none" stroke="#FFFFFF" stroke-width="0.966" stroke-miterlimit="10" points="104.5,7.9 72.5,39.4 72.5,7.9 				
					"/>
			</g>
		</g>
	</g>
</g>
<g id="Calque_2">
</g>
<g id="Calque_3">
</g>
</svg>
